<?xml version="1.0" encoding="utf-8"?>
<!-- Generator: Adobe Illustrator 24.2.3, SVG Export Plug-In . SVG Version: 6.00 Build 0)  -->
<svg version="1.1" id="Capa_1" xmlns="http://www.w3.org/2000/svg" xmlns:xlink="http://www.w3.org/1999/xlink" x="0px" y="0px"
	 viewBox="0 0 364.5 364.5" style="enable-background:new 0 0 364.5 364.5;" xml:space="preserve">
<style type="text/css">
	.st0{fill:#06CAFF;}
	.st1{fill:none;stroke:#FFFFFF;stroke-width:5.1586;stroke-miterlimit:10;}
	.st2{fill:none;stroke:#FFFFFF;stroke-width:5;stroke-miterlimit:10;}
	.st3{fill:none;stroke:#FFFFFF;stroke-width:4;stroke-miterlimit:10;}
</style>
<circle class="st0" cx="182.2" cy="182.2" r="182.2"/>
<path class="st1" d="M123.3,94.9h117.8c14.9,0,27,12.1,27,27v110.7c0,14.9-12.1,27-27,27H123.3c-14.9,0-27-12.1-27-27V121.9
	C96.3,107,108.4,94.9,123.3,94.9z"/>
<circle class="st2" cx="136.4" cy="234.6" r="14.3"/>
<circle class="st2" cx="228.4" cy="234.6" r="14.3"/>
<g>
	<path class="st2" d="M120.8,259.5v26.6c0,8.8,7.1,15.9,15.9,15.9h0c8.8,0,15.9-7.1,15.9-15.9v-26.5h-29.3
		C122.5,259.6,121.6,259.5,120.8,259.5z"/>
</g>
<g>
	<path class="st2" d="M212.4,259.6v26.5c0,8.8,7.1,15.9,15.9,15.9c8.8,0,15.9-7.1,15.9-15.9v-26.7c-1,0.1-2.1,0.2-3.1,0.2H212.4z"/>
</g>
<path class="st3" d="M237.9,163.4H126.6c-4.3,0-7.8-3.5-7.8-7.8v-26.7c0-4.3,3.5-7.8,7.8-7.8h111.3c4.3,0,7.8,3.5,7.8,7.8v26.7
	C245.7,159.9,242.2,163.4,237.9,163.4z"/>
</svg>
